<svg width="127" height="24" viewBox="0 0 127 24" fill="none" xmlns="http://www.w3.org/2000/svg">
<path d="M118.017 11.9206C118.825 11.7355 119.67 11.7923 120.446 12.0838C121.222 12.3753 121.895 12.8886 122.381 13.5599L114.828 15.2684C115.089 13.6697 116.308 12.307 118.017 11.9206ZM122.423 18.2076C121.826 19.0722 120.924 19.6792 119.898 19.9072C118.179 20.2967 116.462 19.5837 115.517 18.2412L123.092 16.5271L124.326 16.2479L126.686 15.7144C126.672 15.2074 126.606 14.7032 126.489 14.2096C125.529 10.1329 121.378 7.5914 117.219 8.53224C113.06 9.4737 110.467 13.5415 111.427 17.6176C112.387 21.6943 116.537 24.2364 120.696 23.2956C123.147 22.7405 125.054 21.1005 126.01 19.0127L122.423 18.2076ZM104.595 23.0894V12.2816H102.262V8.59948H104.595V3.53118H108.556V8.59948H111.532V12.2816H108.556V23.0894H104.595ZM97.0279 23.0894H100.853V8.59948H97.0279V23.0894ZM96.5305 3.51595C96.5305 2.17481 97.5881 1.16863 98.9565 1.16863C100.325 1.16863 101.351 2.17481 101.351 3.51595C101.351 4.85773 100.325 5.89372 98.9565 5.89372C97.5881 5.89372 96.5305 4.85773 96.5305 3.51595ZM95.6963 8.64008C93.7404 8.74159 92.587 9.04167 91.414 9.89178V8.59948H87.5904V23.0894H91.4134V15.984C91.4134 13.7484 91.959 12.4764 95.6963 12.3514V8.64008ZM74.3795 16.0722C74.4746 18.1867 76.3151 19.9599 78.5678 19.9599C80.853 19.9599 82.7251 18.0934 82.7251 15.8857C82.7251 13.7084 80.853 11.8426 78.5678 11.8426C76.3157 11.8426 74.4746 13.6462 74.3795 15.7303V16.0722ZM70.6491 23.0894V1.68568L74.4746 0.820343V9.67798C75.6565 8.73271 77.0567 8.3362 78.5805 8.3362C82.9351 8.3362 86.4187 11.6897 86.4187 15.8971C86.4187 20.0734 82.9358 23.4878 78.5805 23.4878C77.0567 23.4878 75.6565 23.092 74.4746 22.1467V23.09H70.6491V23.0894ZM62.5065 23.0894V12.2074H60.1738V8.59948H62.5065V3.52737L66.4677 2.63095V8.59948H69.4431V12.2074H66.4677V23.0894H62.5065ZM55.4962 23.0894V15.3477C55.4962 12.543 53.9718 11.9333 52.4473 11.9333C50.9234 11.9333 49.3996 12.5125 49.3996 15.2868V23.0894H45.5741V8.59948H49.3996V9.67735C50.2389 9.06768 51.2654 8.33557 53.2879 8.33557C56.5221 8.33557 59.3217 10.1957 59.3217 14.738V23.0894H55.4962ZM35.886 11.9206C37.5951 11.5336 39.3004 12.2347 40.2495 13.5599L32.6974 15.2684C32.9576 13.6697 34.1775 12.307 35.886 11.9206ZM40.292 18.2076C39.6947 19.0722 38.7928 19.6792 37.767 19.9072C36.9538 20.0935 36.1035 20.0347 35.3237 19.7382C34.5438 19.4417 33.8692 18.9208 33.3852 18.2412L40.9613 16.5271L42.1952 16.2479L44.5546 15.7144C44.5403 15.2074 44.4744 14.7032 44.3579 14.2096C43.3974 10.1329 39.2471 7.5914 35.0879 8.53224C30.9287 9.4737 28.3352 13.5415 29.2957 17.6176C30.2562 21.6943 34.4059 24.2364 38.5657 23.2956C41.0165 22.7405 42.9229 21.1005 43.8789 19.0127L40.292 18.2076ZM20.2839 23.0894L14.3427 8.59948H18.5108L22.2747 18.4265L26.0691 8.59948H30.2372L24.2966 23.0894H20.2839ZM6.84206 11.9168C7.65009 11.7317 8.49473 11.7884 9.27075 12.0799C10.0468 12.3714 10.7199 12.8848 11.2062 13.5561L3.65352 15.2652C3.91362 13.6665 5.13359 12.3038 6.84206 11.9168ZM11.248 18.2038C10.6508 19.0686 9.74899 19.6759 8.72309 19.904C7.00384 20.2929 5.28712 19.5805 4.34122 18.2381L11.9173 16.5239L13.1513 16.2448L15.5106 15.7106C15.4963 15.2038 15.4304 14.6998 15.314 14.2064C14.3535 10.1297 10.2038 7.5876 6.04397 8.52843C1.88478 9.46989 -0.707421 13.5384 0.251807 17.6151C1.2123 21.6918 5.36262 24.2333 9.52181 23.2924C11.9725 22.738 13.8789 21.0974 14.8356 19.0102L11.248 18.2045V18.2038Z" fill="#F05537"/>
</svg>
